# xmcd
#
# Track frame offsets: 
#        150
#        21713
#        39603
#        56576
#        73741
#        86903
#        105304
#        121391
#        137606
#        151848
#        171952
#        190945
#        208449
#        226933
#        244006
#
# Disc length: 3479 seconds
#
# Revision: 8
# Processed by: cddbd v1.5.1PL0 Copyright (c) Steve Scherf et al.
# Submitted via: ExactAudioCopy v0.95a4
#
DISCID=d70d950f
DTITLE=Bruno e Marrone - Inevitável
DYEAR=2003
DGENRE=Country
TTITLE0=Será
TTITLE1=Vai dar namoro
TTITLE2=Deixa
TTITLE3=É você que eu amo
TTITLE4=Pra lá que eu vou
TTITLE5=Sonhos perdidos
TTITLE6=Trânsito parado
TTITLE7=Doce desejo
TTITLE8=Apaziguar
TTITLE9=Se não tivesse ido
TTITLE10=Você não me ensinou a te esquecer
TTITLE11=Inevitável
TTITLE12=Coração de pedra
TTITLE13=Foi engano
TTITLE14=Ligação urbana (Ao vivo)
EXTD=YEAR: 2003
EXTT0=
EXTT1=
EXTT2=
EXTT3=
EXTT4=
EXTT5=
EXTT6=
EXTT7=
EXTT8=
EXTT9=
EXTT10=
EXTT11=
EXTT12=
EXTT13=
EXTT14=
PLAYORDER=
